<?xml version="1.0" encoding="UTF-8" standalone="no"?>
<svg
   viewBox="0 0 2731.1677 720"
   height="720"
   width="2731.1677"
   xml:space="preserve"
   id="svg2"
   version="1.1"
   sodipodi:docname="steren.svg"
   inkscape:version="1.1 (c68e22c387, 2021-05-23)"
   xmlns:inkscape="http://www.inkscape.org/namespaces/inkscape"
   xmlns:sodipodi="http://sodipodi.sourceforge.net/DTD/sodipodi-0.dtd"
   xmlns="http://www.w3.org/2000/svg"
   xmlns:svg="http://www.w3.org/2000/svg"
   xmlns:rdf="http://www.w3.org/1999/02/22-rdf-syntax-ns#"
   xmlns:cc="http://creativecommons.org/ns#"
   xmlns:dc="http://purl.org/dc/elements/1.1/"><sodipodi:namedview
     id="namedview32"
     pagecolor="#ffffff"
     bordercolor="#666666"
     borderopacity="1.0"
     inkscape:pageshadow="2"
     inkscape:pageopacity="0.0"
     inkscape:pagecheckerboard="0"
     showgrid="false"
     fit-margin-top="0"
     fit-margin-left="0"
     fit-margin-right="0"
     fit-margin-bottom="0"
     inkscape:zoom="0.1858755"
     inkscape:cx="1783.4519"
     inkscape:cy="-180.22817"
     inkscape:window-width="1920"
     inkscape:window-height="1017"
     inkscape:window-x="1912"
     inkscape:window-y="-8"
     inkscape:window-maximized="1"
     inkscape:current-layer="svg2" /><metadata
     id="metadata8"><rdf:RDF><cc:Work
         rdf:about=""><dc:format>image/svg+xml</dc:format><dc:type
           rdf:resource="http://purl.org/dc/dcmitype/StillImage" /></cc:Work></rdf:RDF></metadata><defs
     id="defs6"><clipPath
       id="clipPath18"
       clipPathUnits="userSpaceOnUse"><path
         id="path16"
         d="M 0,612 H 792 V 0 H 0 Z" /></clipPath></defs><g
     transform="matrix(6.3500183,0,0,-6.3500183,-1149.0242,2303.1059)"
     id="g10"><g
       id="g12"><g
         clip-path="url(#clipPath18)"
         id="g14"><g
           transform="translate(233.4575,282.4404)"
           id="g20"><path
             id="path22"
             style="fill:#00c0ff;fill-opacity:1;fill-rule:nonzero;stroke:none"
             d="m 0,0 c -2.635,2.635 -6.276,4.265 -10.297,4.265 h -38.196 c -0.525,0 -0.989,0.339 -1.15,0.838 -1.019,3.175 -1.783,6.465 -2.266,9.845 -0.104,0.728 0.458,1.381 1.194,1.381 h 42.83 c 4.022,0 7.662,-1.63 10.298,-4.265 L 5.946,8.53 C 8.582,5.895 12.222,4.265 16.244,4.265 h 47.014 c 0.842,0 1.422,-0.84 1.13,-1.629 -1.19,-3.216 -2.646,-6.302 -4.341,-9.231 -0.431,-0.746 -1.228,-1.204 -2.089,-1.204 H 13.831 c -4.021,0 -7.662,1.63 -10.297,4.265 z" /></g><g
           transform="translate(241.8164,298.209)"
           id="g24"><path
             id="path26"
             style="fill:#00c0ff;fill-opacity:1;fill-rule:nonzero;stroke:none"
             d="m 0,0 c 2.636,-2.635 6.276,-4.265 10.297,-4.265 h 47.261 c 0.58,0 1.08,0.413 1.186,0.984 0.595,3.203 0.937,6.495 1.004,9.855 0.013,0.674 -0.533,1.225 -1.206,1.225 H 12.71 c -4.021,0 -7.662,1.63 -10.297,4.265 l -3.534,3.534 c -2.635,2.635 -6.275,4.265 -10.297,4.265 h -47.26 c -0.58,0 -1.08,-0.413 -1.186,-0.984 -0.595,-3.203 -0.937,-6.496 -1.004,-9.856 -0.013,-0.672 0.533,-1.224 1.206,-1.224 h 45.831 c 4.022,0 7.663,-1.63 10.298,-4.265 z" /></g><g
           transform="translate(243.1084,321.0449)"
           id="g28"><path
             id="path30"
             style="fill:#00c0ff;fill-opacity:1;fill-rule:nonzero;stroke:none"
             d="m 0,0 c -2.635,2.635 -6.276,4.266 -10.297,4.266 h -47.014 c -0.842,0 -1.422,0.839 -1.13,1.629 1.19,3.215 2.646,6.301 4.341,9.231 0.431,0.745 1.227,1.204 2.088,1.204 h 44.128 c 4.021,0 7.662,-1.63 10.297,-4.266 L 5.947,8.531 C 8.582,5.896 12.223,4.266 16.244,4.266 h 38.195 c 0.525,0 0.99,-0.339 1.15,-0.838 1.02,-3.176 1.783,-6.466 2.266,-9.845 0.105,-0.729 -0.458,-1.381 -1.194,-1.381 h -42.83 c -4.021,0 -7.662,1.63 -10.297,4.265 z" /></g><g
           transform="translate(235.1055,261.5493)"
           id="g32"><path
             id="path34"
             style="fill:#00c0ff;fill-opacity:1;fill-rule:nonzero;stroke:none"
             d="m 0,0 c -1.977,-1.977 -4.707,-3.199 -7.723,-3.199 l -19.396,-0.003 c -1.188,0 -1.661,-1.535 -0.68,-2.204 3.246,-2.215 6.72,-4.121 10.379,-5.676 1.797,-0.763 3.729,-1.16 5.681,-1.16 h 35.78 c 1.945,0 3.87,0.392 5.661,1.152 8.059,3.421 15.221,8.546 21.034,14.921 0.705,0.774 0.153,2.018 -0.894,2.018 H 10.373 C 7.357,5.849 4.627,4.626 2.65,2.65 Z" /></g><g
           transform="translate(237.0337,344.6128)"
           id="g36"><path
             id="path38"
             style="fill:#00c0ff;fill-opacity:1;fill-rule:nonzero;stroke:none"
             d="m 0,0 c 3.016,0 5.747,1.223 7.723,3.199 l 2.65,2.65 c 1.977,1.977 4.707,3.199 7.723,3.199 L 37.516,9.04 c 1.187,0 1.661,1.534 0.68,2.204 -3.239,2.212 -6.704,4.116 -10.355,5.671 -1.799,0.767 -3.735,1.165 -5.691,1.165 h -35.855 c -1.949,0 -3.878,-0.393 -5.671,-1.156 -8.047,-3.424 -15.198,-8.547 -21.002,-14.918 -0.705,-0.774 -0.152,-2.017 0.895,-2.017 z" /></g><g
           transform="translate(320.356,287.1821)"
           id="g40"><path
             id="path42"
             style="fill:#55555b;fill-opacity:1;fill-rule:nonzero;stroke:none;stroke-opacity:1"
             d="m 0,0 h 34.38 c 4.253,0 4.429,2.776 4.429,4.299 0,2.152 -1.062,3.944 -4.783,5.111 L 9.746,16.758 C 1.682,19.177 -0.71,25.538 -0.71,34.32 c 0,9.412 4.077,15.863 14.355,15.863 H 51.926 V 37.637 H 19.847 c -2.303,0 -4.34,-0.896 -4.34,-4.12 0,-2.422 1.238,-4.125 4.961,-5.29 l 21.799,-6.451 c 9.216,-2.688 12.85,-7.347 12.85,-17.652 0,-9.95 -3.634,-16.672 -14.179,-16.672 H 0 Z" /></g><g
           transform="translate(404.0244,274.6353)"
           id="g44"><path
             id="path46"
             style="fill:#55555b;fill-opacity:1;fill-rule:nonzero;stroke:none;stroke-opacity:1"
             d="m 0,0 c -10.191,0 -17.457,4.124 -17.457,15.772 v 21.42 h -6.556 v 10.303 h 6.556 V 62.731 H -3.634 V 47.495 H 9.657 V 37.192 H -3.634 V 20.88 c 0,-7.167 3.193,-10.574 10.723,-10.574 H 9.657 V 0 Z" /></g><g
           transform="translate(436.9575,274.6353)"
           id="g48"><path
             id="path50"
             style="fill:#55555b;fill-opacity:1;fill-rule:nonzero;stroke:none;stroke-opacity:1"
             d="m 0,0 c -15.064,0 -17.9,6.451 -17.9,23.926 0,20.164 5.317,24.105 23.925,24.105 15.509,0 23.926,-2.506 23.926,-19.084 0,-5.379 -1.597,-9.859 -7.357,-9.859 H -3.897 c 0,-5.824 1.859,-9.051 9.39,-9.051 H 28.354 V 0 Z m 13.291,28.767 c 2.48,0 2.569,1.703 2.569,2.867 0,4.84 -5.402,6.363 -9.835,6.363 -6.645,0 -9.922,-2.243 -9.922,-9.23 z" /></g><g
           transform="translate(474.5503,303.3115)"
           id="g52"><path
             id="path54"
             style="fill:#55555b;fill-opacity:1;fill-rule:nonzero;stroke:none;stroke-opacity:1"
             d="m 0,0 c 0,13.978 7.177,18.817 21,18.817 h 9.305 V 8.514 h -5.493 c -8.154,0 -10.989,-4.39 -10.989,-12.636 V -28.678 H 0 Z" /></g><g
           transform="translate(527.0278,274.6353)"
           id="g56"><path
             id="path58"
             style="fill:#55555b;fill-opacity:1;fill-rule:nonzero;stroke:none;stroke-opacity:1"
             d="m 0,0 c -15.063,0 -17.9,6.451 -17.9,23.926 0,20.164 5.319,24.105 23.925,24.105 15.507,0 23.922,-2.506 23.922,-19.084 0,-5.379 -1.594,-9.859 -7.35,-9.859 H -3.899 c 0,-5.824 1.861,-9.051 9.395,-9.051 H 28.353 V 0 Z m 13.292,28.767 c 2.48,0 2.567,1.703 2.567,2.867 0,4.84 -5.402,6.363 -9.834,6.363 -6.646,0 -9.924,-2.243 -9.924,-9.23 z" /></g><g
           transform="translate(564.6211,313.1694)"
           id="g60"><path
             id="path62"
             style="fill:#55555b;fill-opacity:1;fill-rule:nonzero;stroke:none;stroke-opacity:1"
             d="M 0,0 C 0,6.273 3.098,8.961 8.86,8.961 H 28 c 11.076,0 18.431,-5.02 18.431,-17.117 V -38.534 H 32.605 v 26.793 c 0,7.171 -2.654,10.396 -9.746,10.396 h -5.934 c -2.217,0 -3.102,-0.896 -3.102,-3.136 V -38.534 H 0 Z" /></g></g></g></g></svg>
